<svg width="770" height="745" viewBox="0 0 770 745" fill="none" xmlns="http://www.w3.org/2000/svg">
<g clip-path="url(#clip0_122576_8938)">
<path d="M375.432 0.113907C398.136 -0.826938 420.702 4.07321 440.971 14.3456C475.931 31.645 500.74 60.7769 513.157 97.5971C518.684 93.6042 528.957 88.9446 535.438 86.4989C561.319 76.7298 589.115 75.9596 614.606 87.5263C637.135 97.7495 655.587 115.98 663.834 139.527C672.348 163.832 671.567 186.438 660.588 209.863C687.776 214.229 712.902 227.056 732.382 246.522C757.693 271.929 769.305 303.196 769.156 338.907C768.915 378.604 752.972 416.592 724.798 444.56C695.199 473.783 650.054 492.622 608.379 492.309C610.306 497.198 611.985 502.183 613.41 507.242C627.593 557.499 623.764 619.952 597.784 665.972C578.154 700.975 545.383 726.714 506.725 737.49C458.943 750.496 407.968 744.231 364.755 720.047C362.171 718.529 359.63 716.943 357.134 715.288C320.855 690.98 302.757 660.842 294.387 618.676C286.496 624.624 278.246 630.083 269.685 635.022C223.22 661.759 170.418 670.056 118.339 655.866C77.8511 645.14 43.2823 618.769 22.2372 582.558C-0.44498 542.8 -5.85978 500.783 6.38191 456.577C17.8813 415.052 48.7213 375.873 86.1508 354.633C72.2839 341.814 61.2201 323.793 55.1857 305.977C43.8598 272.008 46.5136 234.93 62.5622 202.921C79.1437 168.898 108.75 143.004 144.678 131.104C179.79 119.376 212.737 122.594 245.435 138.942C244.735 111.599 257.908 73.7091 275.014 52.4962C302.178 18.8082 333.684 5.1808 375.432 0.113907Z" fill="#FCFBFB"/>
<path d="M371.76 5.12501C381.434 4.57149 390.922 4.5785 400.525 5.99181C452.828 13.6891 495.673 53.4877 511.243 103.12C517.947 99.0825 524.899 95.4787 532.068 92.3298C586.811 68.7095 653.252 93.8671 664.306 156.451C668.247 178.792 663.798 192.94 655.501 213.257C720.889 225.035 764.063 269.537 764.956 337.625C765.166 375.389 750.525 411.722 724.191 438.787C697.04 466.522 661.016 483.85 622.401 487.748C616.695 488.349 608.789 488.274 602.859 488.333C605.108 495.384 608.002 502.832 609.829 509.903C623.548 563.097 620.041 620.577 591.52 668.4C545.78 745.104 439.56 759.913 365.776 716.266C364.711 715.628 363.655 714.971 362.61 714.302C323.317 689.065 306.054 657.903 296.372 613.389C287.384 619.53 279.486 624.902 270.157 630.466C224.251 658.027 168.382 666.231 116.618 651.484C37.2027 628.862 -12.7158 543.485 8.76925 463.135C21.4732 415.625 51.5956 379.061 93.8365 355.188C18.4588 288.323 52.4321 168.377 143.919 135.738C170.067 126.685 198.45 126.388 224.782 134.892C233.117 137.641 241.227 141.662 249.168 145.43C248.437 113.63 260.675 75.9214 281.441 51.4776C304.144 24.5789 336.67 7.88657 371.76 5.12501Z" fill="#FAC2ED"/>
</g>
<defs>
<clipPath id="clip0_122576_8938">
<rect width="770" height="745" fill="white"/>
</clipPath>
</defs>
</svg>
