<svg width="808" height="769" viewBox="0 0 808 769" fill="none" xmlns="http://www.w3.org/2000/svg">
<g clip-path="url(#clip0_122576_8939)">
<path d="M552.644 0.850307C577.415 -2.06536 608.99 2.45255 630.488 15.4046C718.014 68.1391 711.153 178.623 667.043 256.793C708.326 270.566 749.973 291.492 776.791 327.006C801.525 359.13 812.119 399.944 806.117 440.043C800.046 482.207 777.55 520.262 743.53 545.903C706.824 573.426 656.535 587.412 610.939 580.976C612.177 626.86 602.544 668.764 575.201 706.416C551.556 738.461 515.149 762.073 475.189 766.96C375.231 779.172 293.827 719.604 279.129 620.015L278.142 610.071C270.985 614.493 263.466 619 256.062 622.965C207.396 649.024 144.975 654.731 93.4847 633.272C56.8558 617.986 27.9035 588.628 13.128 551.789C-4.09839 509.916 -4.7148 451.463 13.3154 409.791C38.5723 351.411 86.6359 314.806 143.95 291.427C119.623 238.157 107.145 180.71 122.725 122.989C133.406 85.16 156.616 49.4967 191.522 30.2656C272.567 -14.3871 365.204 34.8804 407.205 109.601C422.943 79.5579 446.376 49.1877 474.416 29.976C496.012 15.1793 526.323 2.49516 552.644 0.850307Z" fill="#FDFDFD"/>
<path d="M561.269 5.36368C590.086 3.01643 624.557 13.797 645.826 32.2784C701.984 81.0735 703.595 160.329 677.1 225.067C674.432 231.585 662.271 253.123 662.71 258.16C667.836 262.684 692.08 271.316 700.366 275.17C712.314 280.8 723.799 287.385 734.694 294.864C768.443 318.349 793.688 352.729 800.394 393.265C815.952 487.412 741.958 568.997 649.578 576.865C636.534 578.592 623.518 576.214 610.513 577.33C604.988 577.802 606.387 585.856 606.383 590.378C606.297 667.138 561.939 745.029 482.346 760.571C438.607 769.106 391.291 759.82 354.196 735.078C310.699 705.983 287.992 658.659 282.456 607.617C282.268 605.96 279.602 604.945 278.244 604.233C274.187 606.858 270.11 609.445 266.014 612C222.508 638.996 170.129 647.801 120.186 636.51C29.8161 615.129 -10.5027 523.097 9.88863 437.431C21.9986 386.553 58.6616 343.81 102.954 317.467C110.545 312.99 118.324 308.838 126.269 305.022C132.725 301.976 139.803 299.286 145.821 295.462C147.085 294.659 148.81 293.634 148.896 292.061C148.992 290.316 134.761 254.709 132.856 248.655C120.833 210.429 117.097 169.866 126.278 130.579C134.897 93.6933 156.962 57.7412 189.596 37.5878C220.006 18.8083 254.274 14.4166 288.869 22.6246C332.344 32.9398 367.629 61.7279 393.522 97.4493C396.981 102.22 399.628 107.263 402.828 112.151C403.993 113.931 405.326 114.853 407.375 115.333C418.579 112.514 449.63 13.5423 561.269 5.36368Z" fill="#B7D3F5"/>
</g>
<defs>
<clipPath id="clip0_122576_8939">
<rect width="808" height="769" fill="white"/>
</clipPath>
</defs>
</svg>
