<svg width="2149" height="92" viewBox="0 0 2149 92" fill="none" xmlns="http://www.w3.org/2000/svg">
<path d="M0 0H2149V61.2612C2126.81 59.1718 2100.44 50.5837 2083.5 35.4222C2070.16 50.7173 2057.42 62.0197 2039.59 72.1822C2004.54 92.205 1962.91 97.3063 1924.07 86.3405C1883.05 74.8576 1852.54 48.556 1831.89 11.8571C1822.42 26.4875 1809.73 38.7477 1794.77 47.6924C1768.66 63.5016 1735.67 69.8151 1706.23 61.7168C1667.24 50.9911 1646.73 35.0197 1626.46 1.24213C1596.76 43.5986 1525 70.5322 1474.72 69.1014C1432.26 67.8932 1379.6 52.1024 1349.36 21.4598C1316.07 60.7365 1251.04 78.8588 1202.2 64.272C1168.19 54.1156 1133.44 34.2265 1115.9 2.36073C1071.71 45.0212 987.73 49.8589 937.633 14.2406C924.589 34.0303 912.243 47.3611 890.417 58.1298C865.354 70.7019 836.273 72.6096 809.783 63.4194C778.605 52.708 760.262 35.4519 746.092 6.2943C712.4 28.7108 668.82 24.6722 632.901 10.5593C625.576 25.4008 614.576 38.1208 600.947 47.5092C549.801 83.3141 478.679 73.8998 442.806 22.0345C404.807 41.4697 365.672 32.4786 330.502 21.4218C328.087 20.6625 295.606 35.6113 285.598 37.6731C240.835 46.8956 203.718 40.9253 164.828 16.8411C127.52 62.0018 54.5959 83.8049 0 59.3868V0Z" fill="#FEFEFE"/>
</svg>
