<svg width="643" height="644" viewBox="0 0 643 644" fill="none" xmlns="http://www.w3.org/2000/svg">
<g clip-path="url(#clip0_122574_8869)">
<path d="M69.4909 289.124C70.0458 289.017 70.6034 288.931 71.1629 288.864C91.3996 286.359 213.807 299.349 224.878 308.355C229.83 312.375 232.948 318.226 233.524 324.578C236.736 356.843 187.211 354.905 165.706 356.561C133.155 357.202 100.59 356.676 68.0761 354.982C53.5049 354.326 40.1317 354.106 25.25 351.875C2.52547 349.886 -6.31133 321.281 6.80743 304.893C16.8155 292.391 54.498 290.398 69.4909 289.124Z" fill="#FEFDFE"/>
<path d="M73.2039 301.059C118.491 298.193 167.031 311.269 212.043 315.277C220.629 315.727 225.153 330.095 219.188 334.693C208.707 342.771 176.589 343.273 163.81 343.975C133.703 346.179 96.2435 342.951 65.791 342.195C58.6033 342.017 31.7171 341.038 26.1306 339.987C23.2772 339.472 20.6075 338.22 18.3861 336.357C14.7941 333.398 12.5442 329.12 12.1428 324.485C10.7491 307.663 28.9831 305.568 41.276 304.048C52.0769 302.713 62.3267 301.719 73.2039 301.059Z" fill="#8B2CFC"/>
<path d="M493.181 43.7374C496.847 43.3305 501.044 43.5087 504.604 44.4813C511.648 46.4385 517.583 51.1934 521.028 57.6401C531.949 77.7515 513.607 106.37 504.835 125.299C488.034 161.551 455.388 236.138 418.959 255.418C412.349 257.303 406.294 256.266 400.457 252.565C394.782 248.942 390.784 243.209 389.347 236.632C388.756 233.977 388.331 228.882 389.235 226.342C394.666 211.094 403.873 196.088 410.457 181.274C428.822 139.951 445.261 99.4693 469.631 61.0567C476.383 50.4136 480.296 46.6323 493.181 43.7374Z" fill="#FEFDFE"/>
<path d="M492.741 55.5631C494.931 55.3362 496.973 55.1489 499.189 55.4474C508.523 56.7038 514.597 66.0831 512.741 75.196C509.807 88.2399 502.897 100.645 497.527 112.886C489.821 130.448 481.359 147.716 472.623 164.771C461.071 187.324 449.223 209.217 432.252 228.256C427.924 233.112 424.195 238.23 418.923 242.148C406.281 248.331 397.301 235.609 401.498 227.288C425.249 180.189 444.106 130.623 470.018 84.7057C476.595 73.0514 480.391 61.6598 492.741 55.5631Z" fill="#8B2CFC"/>
<path d="M612.118 239.453C640.832 236.15 661.373 283.828 616.312 298.326C568.793 313.613 521.534 326.268 472.585 336.564C449.319 337.377 430.213 319.864 446.044 298.56C449.26 294.294 453.309 290.723 457.944 288.065C483.035 273.507 582.892 243.988 612.118 239.453Z" fill="#FEFDFE"/>
<path d="M610.928 252.224C630.99 248.839 643.262 278.118 612.71 287.434C566.526 301.516 519.884 314.166 472.667 324.375C467.858 324.824 462.757 325.217 458.399 322.673C455.926 321.23 453.578 318.638 452.888 315.806C452.154 312.789 453.077 309.763 454.743 307.229C468.515 286.278 584.419 258.049 610.928 252.224Z" fill="#8B2CFC"/>
<path d="M393.072 436.824C402.363 436.429 412.941 441.022 417.1 449.719C438.415 494.311 454.49 541.593 469.572 588.636C477.077 612.038 483.385 633.31 453.497 643.477C443.319 644.478 428.988 640.639 425.127 630.527C405.116 578.138 389.237 523.554 371.747 470.256C366.077 452.98 376.678 440.535 393.072 436.824Z" fill="#FEFDFE"/>
<path d="M392.418 448.644C399.28 448.516 404.988 450.582 407.966 457.388C430.015 507.802 448.85 560.338 464.031 613.213C466.451 621.636 459.902 628.267 453.156 631.785C433.628 634.825 430.991 613.131 426.025 598.289L410.05 549.923L392.166 495.357C388.978 485.621 385.573 475.812 382.852 465.948C380.413 457.112 385.222 452.419 392.418 448.644Z" fill="#8B2CFC"/>
<path d="M296.816 0.411632C307.749 -0.443452 323.844 4.29764 326.416 16.4911C331.19 39.131 333.151 63.2369 335.967 86.3067C339.753 117.315 344.211 148.594 346.198 179.744C347.104 196.924 340.132 206.839 323.84 211.826C311.79 212.084 299.269 207.391 296.392 194.839C290.469 168.992 287.548 140.952 283.955 114.68L276.598 59.9139C273.432 34.9264 265.502 9.43272 296.816 0.411632Z" fill="#FEFDFE"/>
<path d="M296.695 12.3362C312.583 10.4175 315.56 18.6717 317.129 32.2263C322.85 81.6935 329.63 131.128 334.392 180.689C335.322 190.369 331.006 196.396 322.298 199.875C320.439 199.813 318.593 199.543 316.795 199.069C313.341 198.183 310.33 196.031 308.55 192.921C303.685 184.426 284.225 28.8666 285.622 24.3056C287.452 18.3301 291.402 15.2495 296.695 12.3362Z" fill="#8B2CFC"/>
<path d="M236.281 393.748C242.058 394.31 245.506 394.694 250.477 398.237C255.746 401.937 259.283 407.617 260.274 413.982C261.237 419.814 259.498 429.338 255.726 433.609C246.306 444.291 234.902 455.34 224.401 465.296C196.797 491.481 169.705 520.532 138.932 542.887C134.038 546.451 127.51 547.608 121.716 548.453C115.93 547.801 110.808 546.634 105.91 543.236C100.259 539.314 97.013 532.536 95.9253 525.868C94.5519 517.446 97.7241 510.75 102.595 504.156C120.794 479.55 209.477 397.821 236.281 393.748Z" fill="#FEFDFE"/>
<path d="M233.307 405.367C236.484 405.238 239.459 405.257 242.324 406.818C245.257 408.416 247.947 411.08 248.78 414.405C249.66 417.922 248.903 422.092 247.035 425.178C240.637 435.768 148.838 521.561 133.259 532.472C129.906 534.824 126.49 535.852 122.581 536.844C121.883 536.798 121.24 536.706 120.557 536.55C115.686 535.466 111.632 533.336 108.973 528.955C107.24 526.107 106.834 522.617 107.627 519.394C112.814 498.306 212.058 417.977 233.307 405.367Z" fill="#8B2CFC"/>
<path d="M127.09 103.512C135.276 104.359 140.732 105.645 147.206 111.185C186.551 144.849 224.059 181.105 256.721 221.326C258.57 223.604 260.258 229.554 260.578 232.444C261.295 238.876 259.422 245.329 255.373 250.379C250.091 256.952 243.515 259.171 235.427 260.06C220.384 257.803 210.51 245.958 199.309 236.052C183.433 221.856 167.652 207.553 151.967 193.145C136.349 178.938 118.628 163.517 103.933 148.268C101.408 145.649 99.1025 138.507 98.5605 134.806C97.538 127.971 99.3 121.012 103.452 115.486C109.665 107.174 117.483 104.787 127.09 103.512Z" fill="#FEFDFE"/>
<path d="M123.221 115.17C127.454 114.95 131.361 115.331 135.107 117.414C151.081 126.292 245.581 220.152 248.695 232.72C249.449 235.765 249.144 239.186 247.483 241.888C244.944 246.019 240.83 247.422 236.371 248.583C235.202 248.315 234.044 247.996 232.903 247.623C226.489 245.511 114.32 143.983 110.749 136.423C109.343 133.443 109.496 129.238 110.69 126.232C112.94 120.566 117.902 117.515 123.221 115.17Z" fill="#8B2CFC"/>
<path d="M309.813 442.362C315.787 441.572 321.635 442.261 326.961 445.191C333.022 448.534 336.594 454.017 338.413 460.584C339.851 465.773 338.951 471.459 337.988 476.675C334.871 493.566 302.28 618.384 295.74 629.507C291.397 636.891 283.748 639.656 275.947 641.75C270.666 641.676 265.502 640.978 260.65 638.783C253.986 635.771 249.503 630.691 246.988 623.858C239.547 603.625 279.633 483.692 290.126 460.511C294.694 450.417 299.506 446.229 309.813 442.362Z" fill="#FEFDFE"/>
<path d="M313.5 453.182C319.252 453.852 325.415 456.451 326.551 462.43C328.771 474.095 321.172 495.697 318.095 507.205L298.919 577.054C295.117 590.923 290.766 608.759 286.085 622.361C284.43 627.174 277.101 629.498 272.386 630.903C270.427 630.279 268.262 629.571 266.37 628.781C262.633 627.257 259.69 624.263 258.241 620.497C252.772 606.316 292.88 481.718 301.749 462.789C304.54 456.837 307.532 455.496 313.5 453.182Z" fill="#8B2CFC"/>
<path d="M462.385 385.319C464.934 385.202 470.698 385.162 472.806 386.252C485.945 393.035 498.098 399.669 511.51 406.11C538.723 419.308 568.955 429.448 594.591 445.438C604.763 451.785 609.636 470.751 604.125 481.221C599.58 489.855 594.54 493.152 585.996 496.394C570.986 499.416 550.549 486.015 536.933 478.585L486.522 450.545C475.336 444.281 456.416 435.124 447.875 426.6C432.48 411.244 442.585 390.186 462.385 385.319Z" fill="#FEFDFE"/>
<path d="M461.313 397.171C470.348 396.498 476.861 401.474 484.465 405.963C513.633 423.175 546.185 433.223 576.292 448.69C591.868 456.69 603.913 470.053 586.27 484.197C583.851 485.005 580.47 485.777 577.924 485.492C569.831 484.555 457.857 420.695 455.306 416.948C453.456 414.238 452.193 410.399 452.833 407.12C453.747 402.441 457.574 399.621 461.313 397.171Z" fill="#8B2CFC"/>
</g>
<defs>
<clipPath id="clip0_122574_8869">
<rect width="643" height="644" fill="white"/>
</clipPath>
</defs>
</svg>
