<svg width="544" height="590" viewBox="0 0 544 590" fill="none" xmlns="http://www.w3.org/2000/svg">
<g clip-path="url(#clip0_122574_8888)">
<path d="M20.6839 1.00792C48.2296 -1.28271 103.201 16.1771 130.353 24.896C132.128 19.2521 133.566 14.3971 137.402 9.72311C141.264 5.07664 146.858 2.21109 152.887 1.79044C163.404 0.956476 180.486 8.17921 190.516 12.0781C236.647 30.2635 284.007 54.3032 321.516 87.0343C363.416 123.598 392.95 173.043 394.356 229.657C394.445 233.227 393.765 244.329 394.425 246.954C398.949 264.945 403.338 280.624 404.715 299.356C458.94 331.437 503.525 389.87 524.897 448.77C529.19 460.6 532.766 472.678 535.607 484.939C541.372 510.61 547.194 551.169 539.795 576.546C534.281 595.448 497.48 592.5 494.493 576.62C488.928 547.027 484.822 521.191 475.878 491.956C476.398 508.498 481.335 529.273 461.746 537.824C451.318 542.37 437.291 539.808 431.399 529.402C429.022 525.204 427.174 512.52 426.348 507.744C425.02 500.085 423.651 492.82 421.824 485.215C417.07 465.771 410.938 446.685 403.474 428.114C400.28 420.243 396.66 412.069 393.317 404.216C379.812 439.659 362.528 466.827 330.229 488.328C261.984 533.911 153.702 516.552 107.71 447.163C71.0754 391.89 97.4654 327.388 150.576 294.761C204.251 261.787 267.325 254.467 328.082 268.041C298.754 178.329 177.149 98.21 91.8569 69.4945C78.7298 64.9665 65.2886 61.4074 51.6397 58.8486C33.866 55.4614 9.04418 56.5341 1.85642 36.9058C-0.698434 29.7997 -0.252872 21.9607 3.09021 15.1898C7.02768 7.15697 12.672 3.68063 20.6839 1.00792ZM234.32 444.031C298.262 440.881 330.211 400.221 333.893 337.848C311.326 329.611 287.753 324.862 263.635 325.543C232.426 326.934 201.571 334.992 179.569 358.413C160.876 378.306 158.756 405.97 180.281 424.762C196.474 438.906 213.878 441.606 234.32 444.031Z" fill="#FEFEFE"/>
<path d="M346.028 286.942C336.675 220.501 281.38 166.307 230.18 127.269C176.492 86.3334 111.436 54.3885 44.6662 42.9336C39.7274 42.0987 23.3225 39.966 19.9537 37.9638C9.93177 32.0094 12.9046 14.6534 27.2232 14.8453C41.8982 15.1447 57.6747 19.0959 71.9474 22.5135C139.278 38.638 203.876 67.9946 260.215 108.227C285.676 126.408 306.701 147.226 328.221 169.737C299.068 116.487 257.515 84.7812 203.658 58.0945C192.949 52.8979 182.142 47.9061 171.242 43.1219C163.736 39.8926 141.328 34.9338 144.671 24.1502C149.64 11.5499 160.41 15.9722 169.9 19.4128C267.279 54.721 385.192 122.02 380.218 241.547C379.755 252.66 383.548 261.587 386.292 272.27C389.151 283.689 390.741 295.388 391.032 307.155C479.635 361.6 529.026 452.197 529.705 555.827C529.844 576.923 514.887 586.071 505.593 565.406C499.362 500.774 475.005 437.906 431.384 389.292C446.249 424.405 459.456 457.368 462.024 495.934C462.517 503.346 464.365 512.2 461.95 519.41C460.152 524.774 452.809 527.547 447.7 525.325C445.275 524.268 443.378 522.275 442.44 519.805C440.017 513.458 438.475 493.748 435.995 484.224C427.042 449.837 409.252 397.852 390.68 368.14L389.07 367.176C378.948 412.364 362.171 451.095 321.557 477.197C258.974 517.417 159.45 501.95 118.382 437.75C86.4138 387.767 113.895 332.605 161.044 304.761C215.687 272.491 285.958 267.39 346.028 286.942ZM234.32 444.032C298.263 440.882 330.212 400.222 333.893 337.849C311.326 329.612 287.753 324.863 263.635 325.544C232.426 326.935 201.571 334.993 179.569 358.413C160.876 378.307 158.756 405.971 180.281 424.763C196.475 438.907 213.878 441.607 234.32 444.032Z" fill="#862DFC"/>
<path d="M389.069 367.175C389.506 363.612 389.993 356.613 391.569 353.738C393.48 354.179 394.088 355.245 395.405 356.751C393.123 360.755 391.372 363.465 390.68 368.14L389.069 367.175Z" fill="#FEFEFE"/>
<path d="M256.745 311.71C282.8 307.383 323.536 318.645 348.37 328.599C347.202 396.511 315.581 450.02 244.256 457.588C219.728 458.736 192.559 453.418 173.336 437.621C145.975 415.128 143.589 378.849 166.631 352.296C190.416 324.885 221.89 314.79 256.745 311.71ZM234.32 444.032C298.262 440.882 330.211 400.221 333.893 337.849C311.326 329.611 287.753 324.863 263.635 325.544C232.426 326.935 201.571 334.993 179.569 358.413C160.876 378.307 158.756 405.971 180.281 424.763C196.474 438.907 213.878 441.607 234.32 444.032Z" fill="#FEFEFE"/>
<path d="M349.977 196.051C355.084 197.845 360.563 208.392 362.522 213.384C358.813 210.753 352.703 200.395 349.977 196.051Z" fill="#A052FD"/>
</g>
<defs>
<clipPath id="clip0_122574_8888">
<rect width="544" height="590" fill="white"/>
</clipPath>
</defs>
</svg>
