<svg width="603" height="692" viewBox="0 0 603 692" fill="none" xmlns="http://www.w3.org/2000/svg">
<g clip-path="url(#clip0_122574_8894)">
<path d="M462.843 1.61743C482.84 -2.43572 511.136 4.48486 529.285 12.3588C597.546 41.9735 620.626 131.426 588.192 196.412C534.013 304.969 387.057 347.305 281.251 386.51C281.086 431.183 285.788 465.92 295.286 509.767C317.731 501.115 353.803 494.052 377.429 495.88C405.036 497.845 430.701 510.795 448.684 531.828C466.101 552.291 473.359 579.037 471.066 605.598C468.953 631.159 456.77 654.846 437.194 671.424C418.293 687.13 395.765 692.834 371.453 690.565C340.853 687.709 318.949 671.287 299.936 648.353C281.759 625.731 273.887 604.46 262.841 578.228C217.054 601.355 180.282 634.649 135.6 656.683C91.0444 678.653 26.3004 662.901 7.05124 614.057C-4.05286 585.888 0.364152 552.824 12.3125 525.445C48.9431 435.436 146.436 386.847 231.51 351.587C238.195 264.424 266.858 151.461 323.541 82.6134C356.746 42.2821 410.085 6.4329 462.843 1.61743ZM243.524 360.257C161.011 394.239 60.0637 441.819 23.9642 530.147C13.9266 554.707 7.93226 583.05 18.5109 608.363C36.2938 650.924 89.0233 663.939 128.913 645.763C155.842 633.492 179.271 615.16 203.597 598.71C224.732 584.382 246.891 571.625 269.896 560.539C278.111 583.399 289.225 612.018 303.643 631.756C319.061 653.487 340.136 672.655 367.298 677.56C441.523 690.96 485.326 600.749 442.942 544.126C403.859 491.912 339.671 507.158 286.827 525.362C273.198 472.551 267.839 432.387 268.633 378.03L349.154 347.833C433.272 316.103 536.439 274.75 578.188 188.427C606.844 129.178 584.685 51.0442 523.177 23.9671C508.158 17.3561 482.07 11.4164 465.571 14.4694C414.24 19.7579 363.735 52.2731 331.987 92.2131C276.309 162.256 249.098 272.994 243.524 360.257Z" fill="#FEFEFE"/>
<path d="M465.571 14.4703C482.07 11.4173 508.158 17.357 523.177 23.968C584.685 51.0451 606.844 129.179 578.188 188.428C536.439 274.751 433.272 316.103 349.154 347.833L268.633 378.03C267.839 432.387 273.198 472.552 286.827 525.363C339.671 507.159 403.859 491.913 442.942 544.127C485.326 600.75 441.523 690.961 367.298 677.56C340.136 672.656 319.061 653.488 303.643 631.757C289.225 612.019 278.111 583.4 269.896 560.54C246.891 571.626 224.732 584.383 203.597 598.711C179.271 615.16 155.842 633.493 128.913 645.763C89.0233 663.94 36.2938 650.925 18.5109 608.364C7.93228 583.051 13.9267 554.708 23.9642 530.148C60.0638 441.82 161.011 394.24 243.524 360.257C249.098 272.995 276.309 162.256 331.987 92.214C363.735 52.2739 414.24 19.7587 465.571 14.4703ZM351.907 305.633C420.68 278.488 490.913 247.306 535.326 184.986C573.601 131.277 542.266 55.2287 473.857 56.9306C470.015 57.005 466.175 57.1491 462.309 57.5165C338.236 78.7439 299.699 225.236 284.883 330.733C307.167 322.214 329.508 313.848 351.907 305.633ZM75.8449 610.706C108.9 622.453 141.072 595.799 166.995 578.257C192.668 560.87 218.714 541.298 247.201 528.679C238.954 494.108 232.096 459.941 230.999 424.351C230.898 421.072 230.713 410.629 229.526 408.14C165.834 436.622 87.932 477.64 59.8589 546.129C49.7709 570.744 47.047 598.031 75.8449 610.706ZM294.176 550.253C306.21 587.285 331.887 645.359 375.475 650.852C390.244 651.798 402.576 649.079 413.99 639.095C425.347 629.103 432.296 615.023 433.323 599.932C436.275 553.945 396.771 528.045 354.002 535.236C333.496 537.643 313.387 542.685 294.176 550.253Z" fill="#812FFE"/>
<path d="M463.681 44.7331C538.156 32.4644 587.19 113.826 554.16 177.547C515.046 253.005 420.216 293.097 344.918 321.46L270.864 349.02C271.736 331.572 275.097 311.794 277.922 294.552C294.892 191.023 344.212 61.405 463.681 44.7331ZM284.883 330.733C307.167 322.215 329.508 313.848 351.907 305.634C420.68 278.489 490.913 247.307 535.326 184.987C573.601 131.278 542.266 55.2293 473.857 56.9312C470.015 57.0056 466.175 57.1498 462.309 57.5171C338.236 78.7445 299.699 225.237 284.883 330.733Z" fill="#FEFEFE"/>
<path d="M241.707 388.908C243.105 391.104 243.205 421.284 243.591 427.566C245.981 466.555 252.241 498.14 261.8 535.531C238.418 546.414 216.021 559.31 194.857 574.051C157.292 599.768 114.372 639.629 66.4851 620.635C35.8645 603.368 35.6982 573.628 47.5712 543.53C79.6158 462.302 167.452 422.331 241.707 388.908ZM75.8455 610.706C108.901 622.454 141.073 595.8 166.995 578.257C192.669 560.871 218.714 541.299 247.202 528.679C238.955 494.108 232.097 459.942 231 424.351C230.899 421.073 230.714 410.63 229.526 408.141C165.835 436.622 87.9326 477.64 59.8595 546.13C49.7715 570.744 47.0476 598.032 75.8455 610.706Z" fill="#FEFEFE"/>
<path d="M354.002 535.236C396.77 528.045 436.275 553.945 433.323 599.932C432.296 615.023 425.347 629.103 413.99 639.095C402.576 649.079 390.244 651.798 375.475 650.852C331.887 645.359 306.21 587.285 294.176 550.253C313.387 542.685 333.496 537.643 354.002 535.236ZM309.826 557.463C323.822 590.95 337.668 628.184 376.152 638.544C389.104 638.967 397.569 637.396 407.503 628.037C416.063 620.083 421.023 608.998 421.246 597.315C421.647 584.245 416.818 571.552 407.828 562.055C396.08 549.812 375.607 544.301 359.109 547.213C340.555 548.866 327.408 551.778 309.826 557.463Z" fill="#FEFEFE"/>
</g>
<defs>
<clipPath id="clip0_122574_8894">
<rect width="603" height="692" fill="white"/>
</clipPath>
</defs>
</svg>
