<svg width="499" height="667" viewBox="0 0 499 667" fill="none" xmlns="http://www.w3.org/2000/svg">
<g clip-path="url(#clip0_122574_8928)">
<path d="M340.904 140.589C363.811 138.746 383.33 156.754 381.189 180.857C380.85 184.674 378.253 191.017 375.579 193.847C361.447 208.807 344.399 221.684 328.375 234.663C282.577 271.656 235.699 307.291 187.8 341.521C180.375 346.149 168.707 345.439 161.413 340.773C156.173 337.439 152.529 332.103 151.331 326.009C148.547 312.513 156.008 303.177 164.66 293.997C210.564 245.288 259.268 198.093 311.976 156.751C321.34 149.407 329.055 143.072 340.904 140.589Z" fill="#FEFEFD"/>
<path d="M342.035 151.05C358.743 150.683 367.179 161.38 371.448 176.348C370.326 180.333 368.789 185.992 365.752 188.665C352.584 200.254 337.223 212.335 323.577 223.267C299.906 242.213 276.033 260.905 251.961 279.338C229.788 296.113 207.359 312.228 185.575 329.548C184.084 331.059 181.325 332.808 179.291 333.383C175.615 334.461 171.658 333.969 168.358 332.025C165.142 330.138 162.807 327.05 161.865 323.443C161.11 320.484 161.679 314.628 163.778 312.412C209.843 263.783 257.601 215.876 309.8 173.736C317.932 167.172 332.493 153.207 342.035 151.05Z" fill="#FECC06"/>
<path d="M93.2653 0.403169C104.433 -0.782674 115.42 0.39795 124.73 7.32244C151.079 26.9231 129.826 62.2567 120.085 85.1463C103.872 123.328 87.2434 161.333 70.2024 199.153C63.6963 213.715 57.509 228.874 50.6105 243.259C48.4363 247.794 44.8034 250.333 40.8474 253.293C33.1165 257.78 22.0177 257.967 14.0286 254.004C7.86382 250.943 3.24605 245.461 1.27802 238.866C0.22644 235.447 -0.460475 229.157 0.367623 225.757C5.72947 203.733 13.424 180.269 20.3113 158.725C30.9501 124.415 42.5608 90.4137 55.1278 56.7632C60.144 43.4435 65.3906 29.1726 71.5217 16.3605C76.0442 6.91274 83.8669 3.35695 93.2653 0.403169Z" fill="#FEFEFD"/>
<path d="M98.8138 10.7966C99.5449 10.7351 100.279 10.7169 101.011 10.7403C108.31 10.9395 115.176 13.6646 120.181 19.0811C125.08 24.3831 127.366 31.7295 126.977 38.8887C126.677 44.3926 50.3104 220.271 41.0713 238.183C40.0761 240.114 38.6105 241.534 36.9924 242.945C29.3524 247.111 19.9817 248.011 13.9719 240.096C12.2274 237.798 10.5322 232.425 11.3863 229.561C30.9557 163.918 50.7677 98.2216 74.9116 34.0778C80.5004 19.2292 82.5914 14.3039 98.8138 10.7966Z" fill="#FECC06"/>
<path d="M461.43 374.744C479.371 370.212 497.852 388.153 498.545 406.062C498.827 415.027 495.592 423.741 489.53 430.359C486.61 433.512 480.756 437.929 476.393 438.449C403.982 447.059 328.249 452.733 255.461 455.713C238.131 456.596 220.117 454.708 217.629 433.191C216.079 419.8 226.071 409.154 238.795 406.555C285.759 396.986 333.553 390.733 381.028 384.102C407.47 380.521 434.835 377.121 461.43 374.744Z" fill="#FEFEFD"/>
<path d="M461.173 385.944C477.674 382.667 485.481 394.267 489.044 408.304C484.403 424.606 479.119 429.3 462.345 430.201C448.399 430.946 433.765 432.627 419.788 433.909C388.732 436.585 357.64 438.803 326.519 440.578C304.832 442.008 279.707 444.243 258.219 444.65C248.059 445.637 230.458 447.352 228.824 432.869C228.446 429.326 229.484 425.775 231.712 422.986C236.978 416.351 252.061 415.545 260.288 414.185C274.807 411.794 289.342 409.49 303.892 407.281C356.127 398.817 408.571 391.701 461.173 385.944Z" fill="#FECC06"/>
<path d="M240.227 524.376C247.483 524.264 262.832 531.566 269.923 534.944C314.378 556.166 359.312 576.843 403.439 598.715C416.4 605.133 434.145 612.357 438.945 626.892C445.008 645.247 434.963 659.566 417.707 665.144C416.814 665.421 415.912 665.673 415 665.881C409.282 667.223 398.231 667.05 392.828 664.642C339.059 640.648 288.428 609.308 238.443 578.298C229.534 572.771 220.042 566.431 217.584 555.551C216.144 549.037 217.352 542.22 220.94 536.599C225.794 529.002 231.91 526.247 240.227 524.376Z" fill="#FEFEFD"/>
<path d="M239.3 536.442C246.311 536.26 262.343 544.905 269.282 548.136L325.037 574.391L389.133 604.492C400.176 609.758 421.636 617.589 427.581 628.183C433.725 639.132 427.605 649.006 417.296 654.576C400.105 661.411 383.957 649.44 368.877 641.262C323.152 616.472 277.758 589.974 233.999 561.883C229.409 558.938 226.513 550.154 229.132 545.148C231.677 539.899 234.027 538.642 239.3 536.442Z" fill="#FECC06"/>
</g>
<defs>
<clipPath id="clip0_122574_8928">
<rect width="499" height="667" fill="white"/>
</clipPath>
</defs>
</svg>
