<svg width="777" height="619" viewBox="0 0 777 619" fill="none" xmlns="http://www.w3.org/2000/svg">
<g clip-path="url(#clip0_122574_8900)">
<path d="M750.691 0.398962C757.601 -0.222038 763.977 0.249719 769.536 4.81272C778.283 11.9925 778.366 24.8955 774.577 34.6417C769.536 47.604 763.872 60.2265 758.321 72.9352L725.665 146.885C705.328 193.348 685.748 240.212 664.128 286.106C658.637 296.429 654.395 309.829 647.608 319.256C641.461 327.793 625.824 329.643 617.968 322.513C609.341 314.68 603.144 304.387 595.116 295.917C588.092 288.507 580.74 281.814 573.313 274.915C551.519 283.521 530.859 294.84 509.12 303.376C503.521 305.574 495.475 304.815 490.175 301.755C482.143 297.117 481.127 291.016 478.911 282.777C476.139 284.059 466.454 311.252 464.697 315.79C459.876 328.24 453.532 340.226 449.921 353.042C449.163 355.735 445.065 359.08 444.542 362.23C440.765 374.582 442.255 387.4 437.33 399.452C431.745 412.727 427.507 427 413.891 433.45C411.052 454.915 385.983 481.015 367.007 490.697C363.271 492.602 357.968 491.447 354.036 490.652C345.747 506.252 331.564 509.98 315.356 514.727C306.709 517.262 299.503 515.687 292.027 510.88C280.695 527.117 248.947 521.177 233.606 514.652C233.272 515.462 232.927 516.257 232.571 517.06C224.204 535.727 209.699 557.987 189.723 565.495C181.296 579.512 166.916 588.482 152.849 596.312C145.652 600.317 140.514 598.097 132.988 596.417C129.114 598.112 128.006 602.162 126.137 603.625C117.751 610.225 95.6803 614.432 85.141 615.137C77.8987 615.625 73.0803 613.427 68.6017 609.047C64.4119 613.877 58.8651 618.13 52.3752 617.965C39.5051 617.627 16.464 621.055 6.55705 612.497C2.78738 609.227 0.501573 604.577 0.219504 599.597C-0.0768179 594.767 1.63359 590.027 4.9479 586.502C13.4122 577.45 25.944 580.03 36.9597 580.03C49.523 580.022 57.1141 578.215 66.7615 587.32C76.6482 575.132 92.4658 575.485 108.729 571.532C116.162 570.37 118.35 570.887 125.039 574.142C131.313 562.21 143.326 557.687 153.793 549.76C159.045 545.785 164.426 542.807 171.085 542.44C175.647 530.522 182.041 526.435 189.828 516.812C194.146 511.472 198.57 505.727 202.774 500.267C190.542 494.012 172.097 474.985 174.503 460.045C148.311 437.777 168.807 398.657 194.961 387.115C200.113 382.84 211.716 384.377 215.683 382.915C235.363 373.66 258.352 398.837 259.553 416.635C260.352 428.485 256.49 421.765 262.634 433.81C267.364 443.087 259.201 470.012 255.214 480.64C270.191 484.217 278.093 479.312 288.557 488.567C289.153 487.825 289.765 487.105 290.393 486.392C297.204 478.712 319.099 475.075 328.964 470.177C335.929 466.727 337.133 471.73 344.495 464.56C371.916 437.86 396.118 417.032 405.982 378.805C391.378 374.59 383.383 368.02 380.002 352.397C377.039 338.713 381.71 325.01 389.385 313.712C396.003 303.968 405.152 293.89 417.284 291.594C425.211 290.085 429.248 292.947 435.511 297.247C441.308 280.488 440.05 268.923 459.344 263.656C461.889 264.247 465.715 265.593 468.324 266.434C467.404 247.009 468.746 217.879 469.488 198.136C443.395 186.22 416.348 175.991 390.656 163.348C372.652 154.488 372.897 130.648 390.541 123.833C404.558 118.419 420.281 113.337 434.525 108.23C475.718 93.645 517.032 79.4055 558.463 65.5125L695.065 18.9082C711.749 13.35 734.428 4.84946 750.691 0.398962ZM492.082 255.815C491.501 263.295 488.225 285.37 492.561 290.539C494.589 292.955 497.922 294.091 500.995 294.188C506.188 294.351 566.91 266.094 575.405 261.448C593.659 278.286 609.193 293.763 623.923 313.829C627.224 318.325 636.752 316.913 639.594 312.073C645.862 301.019 651.162 288.877 656.543 277.271C673.19 240.535 689.469 203.629 705.365 166.561L743.475 79.932C750.451 64.2975 757.451 48.6705 764.292 32.9813C765.838 29.4428 766.79 23.388 766.003 19.578C764.367 11.718 759.214 10.4693 752.244 10.8368C729.949 17.82 706.543 26.4502 684.27 33.9862L528.661 87.0195L432.834 120.126C419.834 124.723 406.653 129.05 393.814 133.927C388.626 135.897 385.973 141.258 387.892 146.449C389.877 151.821 393.484 152.965 398.321 155.332C430.962 170.53 463.577 183.279 497.073 196.271C495.147 216.097 493.483 235.946 492.082 255.815ZM219.698 466.96C228.704 449.402 224.543 443.807 229.024 432.46C227.084 428.462 223.205 418.63 218.908 417.325C195.887 425.057 200.347 429.505 202.029 449.38C208.548 454.48 209.488 456.775 214.731 462.932L219.698 466.96ZM481.512 234.943C481.615 234.454 481.708 233.962 481.791 233.469C482.214 230.99 482.881 226.075 481.485 224.11L481.551 223.842C480.513 227.383 480.699 231.063 480.677 234.766L481.512 234.943Z" fill="#FEFEFE"/>
<path d="M752.244 10.838C759.213 10.4705 764.367 11.7193 766.002 19.5793C766.79 23.3893 765.837 29.444 764.292 32.9825C757.45 48.6718 750.451 64.2987 743.474 79.9333L705.365 166.562C689.469 203.631 673.19 240.536 656.543 277.273C651.162 288.878 645.862 301.021 639.593 312.075C636.752 316.915 627.224 318.327 623.923 313.831C609.192 293.764 593.658 278.287 575.405 261.449C566.91 266.095 506.188 294.352 500.995 294.19C497.921 294.093 494.588 292.957 492.561 290.54C488.224 285.371 491.501 263.296 492.082 255.817C493.483 235.948 495.146 216.098 497.073 196.273C463.576 183.28 430.962 170.532 398.32 155.334C393.483 152.967 389.877 151.822 387.892 146.45C385.973 141.259 388.626 135.898 393.813 133.928C406.653 129.052 419.834 124.725 432.834 120.127L528.66 87.0208L684.27 33.9875C706.543 26.4515 729.949 17.8213 752.244 10.838ZM552.131 222.436C566.39 231.235 578.168 237.976 590.62 249.356C605.552 262.993 615.497 274.54 629.03 287.744C637.212 269.938 735.432 55.9295 735.447 52.6798C677.578 111.038 613.813 168.076 552.131 222.436ZM450.296 145.8C455.588 148.256 460.267 150.471 465.759 152.487C477.937 157.483 490.233 162.188 502.635 166.597C507.622 162.313 513.305 158.793 518.831 155.233C549.96 135.186 580.475 114.201 611.4 93.839C614.48 91.8118 617.666 89.6878 620.617 87.4805L620.302 86.7133L503.392 127.344C485.905 133.394 467.513 139.297 450.296 145.8Z" fill="#972FFD"/>
<path d="M735.447 52.6797C735.432 55.9294 637.211 269.938 629.03 287.744C615.497 274.54 605.552 262.992 590.62 249.356C578.168 237.975 566.39 231.235 552.131 222.435C613.813 168.076 677.578 111.038 735.447 52.6797ZM571.392 220.88C582.083 227.571 588.936 233.288 598.618 241.503C608.71 250.957 616.297 258.359 625.868 268.162C633.287 251.93 699.476 108.382 698.531 104.403C688.268 114.823 676.46 125.014 665.785 135.174C635.034 164.433 602.531 192.145 571.392 220.88Z" fill="#FEFEFE"/>
<path d="M699.363 47.6016L699.926 47.708C698.868 50.2438 524.06 164.423 504.102 179.24C483.239 171.483 462.476 163.462 441.816 155.177C433.247 151.879 424.74 148.423 416.299 144.811C424.474 141.311 437.466 137.432 446.155 134.577C462.871 129.145 479.54 123.569 496.16 117.849L607.241 78.9193C637.907 68.3961 668.876 58.5718 699.363 47.6016ZM450.296 145.8C455.587 148.255 460.266 150.47 465.758 152.486C477.937 157.483 490.232 162.187 502.635 166.597C507.622 162.312 513.304 158.792 518.831 155.233C549.96 135.185 580.474 114.2 611.4 93.8383C614.479 91.8111 617.665 89.6871 620.617 87.4798L620.301 86.7126L503.391 127.343C485.905 133.393 467.513 139.297 450.296 145.8Z" fill="#FEFEFE"/>
<path d="M668.764 91.0566L669.244 91.4316C666.813 94.1511 651.893 107.409 648.054 111.025C613.474 143.603 578.916 169.891 544.252 203.255C539.898 200.711 535.072 198.145 530.632 195.686L519.978 189.642C523.309 187.258 526.992 184.69 530.473 182.515C570.52 157.496 608.723 129.868 648.505 104.47C655.335 100.109 662.207 95.7996 668.764 91.0566Z" fill="#FEFEFE"/>
<path d="M514.665 198.02C521.703 202.472 529.912 206.266 537.487 209.67C530.684 216.451 518.058 224.685 517.103 234.785C516.644 239.632 521.104 242.765 525.685 242.785C532.68 242.816 535.071 239.549 539.584 234.931C545.966 239.234 552.842 243.438 559.349 247.751C546.116 254.879 523.549 264.063 509.188 270.406C511.328 246.089 511.902 222.621 514.665 198.02Z" fill="#FEFEFE"/>
<path d="M434.337 330.815C442.551 313.34 447.27 297.944 452.619 279.558C453.168 277.668 455.335 275.68 457.246 275.051C458.996 274.469 460.914 274.692 462.484 275.658C463.486 276.269 465.924 278.816 465.65 279.871C459.062 305.248 446.532 330.736 434.782 354.249C431.675 360.467 436.333 368.889 426.888 371.327C423.233 370.119 423.437 367.494 422.733 363.924L421.315 363.992C417.737 366.992 413.772 369.264 408.925 368.139C404.629 367.554 403.436 367.112 399.672 365.094C373.382 348.107 405.052 295.542 422.597 302.798C424.616 304.991 424.138 303.911 424.417 306.849C423.57 309.262 422.761 309.675 420.706 311.073L420.05 311.513C429.168 310.418 430.195 313.47 431.512 321.969C433.319 324.586 433.654 327.635 434.337 330.815Z" fill="#FEFEFE"/>
<path d="M434.337 330.815C442.551 313.34 447.27 297.944 452.619 279.558C453.168 277.668 455.335 275.68 457.245 275.051C458.996 274.469 460.914 274.692 462.484 275.658C463.485 276.269 465.924 278.816 465.65 279.871C459.062 305.248 446.532 330.736 434.782 354.249C431.675 360.467 436.333 368.889 426.888 371.327C423.233 370.119 423.437 367.494 422.733 363.924L421.315 363.992C417.737 366.992 413.772 369.264 408.925 368.139C408.827 364.254 408.927 363.602 409.904 359.829C411.559 359.582 416.825 357.782 418.721 357.167C423.146 354.399 421.687 351.909 425.836 345.473C426.016 338.699 424.711 333.453 424.655 326.846C424.628 323.687 427.124 323.152 429.601 321.871L431.512 321.969C433.319 324.586 433.654 327.635 434.337 330.815Z" fill="#972FFD"/>
<path d="M418.721 357.168C421.556 357.948 420.733 357.31 422.458 359.35C422.054 361.945 422.345 361.015 420.46 363.213L421.315 363.993C417.737 366.993 413.772 369.265 408.925 368.14C408.827 364.255 408.927 363.603 409.904 359.83C411.559 359.583 416.825 357.783 418.721 357.168Z" fill="#A435FE"/>
<path d="M399.672 365.095C373.382 348.107 405.052 295.543 422.597 302.798C424.616 304.991 424.138 303.911 424.417 306.849C423.57 309.262 422.761 309.676 420.706 311.074L420.05 311.514L419.315 312.394C409.878 318.562 403.322 328.268 401.126 339.324C399.53 347.395 400.688 351.52 404.684 358.322C405.994 358.69 408.76 359.38 409.904 359.83C408.927 363.602 408.827 364.255 408.925 368.14C404.629 367.555 403.436 367.112 399.672 365.095Z" fill="#972FFD"/>
<path d="M420.05 311.515C429.168 310.419 430.195 313.472 431.512 321.971L429.601 321.872C428.894 321.737 426.705 321.829 425.889 321.888L424.978 321.957C421.567 319.982 420.874 316.319 419.315 312.395L420.05 311.515Z" fill="#A435FE"/>
<path d="M392.886 429.258C393.821 429.415 394.748 429.618 395.664 429.858C417.802 435.745 372.612 476.74 362.806 481.15C356.794 480.768 352.488 477.085 353.562 470.755C358.042 464.883 368.517 456.423 374.288 449.943C378.134 445.63 389.424 431.343 392.886 429.258Z" fill="#972FFD"/>
<path d="M204.991 394.045C208.187 394.105 211.714 395.372 214.075 397.562C219.271 408.152 193.378 413.815 190.581 424.42C187.629 435.617 193.566 441.962 183.406 448.78C168.043 447.512 172.066 428.792 176.667 419.455C182.538 407.552 192.48 398.312 204.991 394.045Z" fill="#972FFD"/>
<path d="M244.463 433.562C264.855 435.835 242.019 490.983 229.713 499.113C220.648 496.818 218.784 492.033 223.697 484.21C229.91 474.588 234.047 467.23 235.777 455.718C237.096 446.95 236.304 438.07 244.463 433.562Z" fill="#972FFD"/>
<path d="M219.594 519.093C217.206 528.003 201.597 548.268 192.767 552.641C186.273 555.858 180.216 546.453 183.706 540.851C186.911 535.706 191.668 531.431 195.348 526.623C200.355 521.148 211.65 501.836 220.751 507.251C223.703 511.676 222.685 515.036 219.68 518.876L219.594 519.093Z" fill="#972FFD"/>
<path d="M219.594 519.092C215.668 519.879 212.243 520.697 209.414 517.359C208.868 514.794 208.669 515.717 209.854 513.797C212.391 513.212 211.332 513.122 213.824 513.954C215.839 516.414 216.606 517.614 219.68 518.874L219.594 519.092Z" fill="#F2E1FE"/>
<path d="M17.5959 589.869C24.4496 590.499 31.7166 590.417 39.0279 590.439C46.4599 590.469 63.3713 589.052 59.093 601.982C57.985 605.334 56.4629 606.009 53.2776 607.502C42.4375 607.802 29.4068 608.462 18.8172 606.812C7.84351 605.109 7.85926 594.917 17.5959 589.869Z" fill="#972FFD"/>
<path d="M241.946 489.984C243.682 490.187 249.169 491.019 250.856 491.492C259.396 493.854 276.535 490.674 282.357 498.062C283.225 499.157 283.574 500.574 283.313 501.947C282.674 505.292 279.326 508.352 276.532 510.099C266.598 510.647 234.067 512.334 236.27 496.314C236.712 493.097 239.447 491.627 241.946 489.984Z" fill="#972FFD"/>
<path d="M111.786 581.582C120.439 580.809 124.35 588.722 120.716 593.777C115.995 600.362 92.9302 603.534 86.2063 604.749C84.8312 604.839 80.3504 605.057 79.5012 604.187C66.7646 591.137 86.1808 586.442 95.9107 585.377C100.696 584.852 107.515 582.812 111.786 581.582Z" fill="#972FFD"/>
<path d="M167.318 553.676C170.034 553.796 175.593 555.813 176.533 558.198C181.014 569.576 152.714 584.381 145.154 588.326C132.489 587.643 133.212 576.836 142.225 570.753C150.597 565.098 158.809 559.128 167.318 553.676Z" fill="#972FFD"/>
<path d="M334.73 478.734C338.481 479.837 341.403 482.079 342.339 485.859C345.098 497.012 313.637 504.354 306.684 506.207C295.371 504.407 295.929 493.209 303.276 490.389C313.433 486.482 324.547 483.054 334.73 478.734Z" fill="#972FFD"/>
<path d="M421.31 374.432C443.323 374.364 418.532 418.787 410.983 423.077C406.096 423.744 401.277 419.732 402.409 415.022C404.34 409.029 408.502 403.764 411.222 398.004C415.27 389.424 413.575 380.477 421.31 374.432Z" fill="#972FFD"/>
<path d="M191.513 459.197C200.064 458.964 199.743 464.177 205.877 469.554C210.056 473.222 214.076 477.114 218.25 480.819C220.165 486.242 216.819 488.619 212.926 491.477C204.862 492.182 195.422 482.499 191.054 476.507C186.003 469.569 183.667 464.694 191.513 459.197Z" fill="#972FFD"/>
<path d="M223.403 391.667C231.368 391.577 239.824 398.447 243.997 404.807C248.754 412.059 251.563 418.359 243.208 424.074C229.906 421.794 237.419 412.382 224.545 407.244C221.154 405.887 218.311 403.569 217.197 399.984C217.81 395.807 220.251 394.082 223.403 391.667Z" fill="#972FFD"/>
<path d="M479.943 202.434C482.446 203.313 483.399 203.411 485.103 205.38C485.726 208.015 484.03 211.139 482.966 213.876C482.628 214.457 481.833 215.324 481.369 215.873L480.322 215.376C479.399 211.885 479.836 206.212 479.943 202.434Z" fill="#972FFD"/>
<path d="M480.676 234.766C480.698 231.063 480.512 227.383 481.551 223.842L481.485 224.11C482.88 226.075 482.213 230.99 481.791 233.469C481.707 233.962 481.614 234.454 481.511 234.943L480.676 234.766Z" fill="#D0E3D4" fill-opacity="0.564706"/>
<path d="M480.676 234.768L481.511 234.945C481.6 238.07 481.94 240.882 480.989 243.816L480.349 243.242C479.88 239.436 480.076 238.571 480.676 234.768Z" fill="#D0E3D4"/>
</g>
<defs>
<clipPath id="clip0_122574_8900">
<rect width="777" height="619" fill="white"/>
</clipPath>
</defs>
</svg>
