<svg width="976" height="1029" viewBox="0 0 976 1029" fill="none" xmlns="http://www.w3.org/2000/svg">
<g clip-path="url(#clip0_122574_8929)">
<path d="M51.8783 714.153C31.4493 704.442 15.797 676.043 8.86506 655.549C-3.80842 619.135 -1.37573 579.17 15.62 544.563C48.57 478.771 121.514 456.612 190.148 470.697C242.812 481.505 294.418 502.216 344.644 521.075C355.358 525.091 367.014 529.873 377.191 535.023C380.239 558.584 383.883 572.974 396.546 593.7C385.137 616.998 358.242 649.671 340.769 668.707C324.316 686.317 307.187 703.284 289.422 719.572C249.851 756.12 203.2 795.975 146.861 798.124C93.8462 800.145 53.3576 768.274 51.8783 714.153Z" fill="#B077FA"/>
<path d="M416.425 617.893C444.589 641.73 471.266 652.28 509.456 651.006C509.841 650.957 510.221 650.902 510.607 650.853C519.773 693.353 526.919 736.269 532.007 779.455C537.175 820.682 542.673 859.906 537.071 901.169C526.747 977.193 470.187 1040.63 388.807 1027.1C381.285 1025.85 373.864 1023.81 366.641 1021.22C362.493 1019.74 357.943 1017.68 353.733 1016.27C316.936 1010.32 285.942 992.384 263.92 961.714C240.603 929.243 233.124 889.517 239.599 850.219C243.373 827.307 252.466 804.352 263.664 783.919C289.296 740.403 327.279 700.327 363.017 664.924C378.786 649.304 398.584 630.604 416.425 617.893Z" fill="#B1B2FA"/>
<path d="M380.03 499.875C370.296 500.843 350.747 497.314 340.907 495.279C292.341 485.236 247.525 465.866 204.067 442.359C182.512 430.699 164.525 419.881 145.059 404.75C108.983 376.707 81.4685 337.247 76.5866 290.691C73.0377 253.453 84.3972 216.326 108.175 187.448C159.953 123.982 243.873 103.071 310.289 157.368C351.281 190.879 367.204 235.343 384.153 283.521C396.122 318.102 407.283 352.958 417.627 388.059C419.878 395.878 427.007 419.691 427.668 426.344C402.714 446.898 387.137 467.28 380.03 499.875Z" fill="#FED246"/>
<path d="M565.022 420.011C569.284 402.197 584.139 369.707 591.994 352.618C603.255 328.102 615.097 303.859 627.514 279.907C652.013 232.766 677.417 188.433 722.93 160.184C780.192 124.641 847.338 136.963 891.852 185.595C901.637 196.288 907.95 202.592 915.861 215.317C965.372 294.955 918.726 389.715 843.205 431.83C788.305 462.831 730.271 476.011 668.912 485.649C658.111 487.392 647.261 488.789 636.368 489.838C634.335 490.04 620.852 491.07 619.94 491.334C618.85 486.52 615.507 478.357 613.327 473.839C601.399 449.052 587.127 435.076 565.022 420.011Z" fill="#E6BAF4"/>
<path d="M599.391 602.678C633.098 614.042 668.22 630.513 700.005 646.666C756.147 675.603 817.843 704.645 846.995 764.449C866.619 804.714 867.703 850.986 845.225 890.265C822.686 929.655 779.207 955.169 733.535 944.099C712.857 983.788 663.248 991.167 625.879 971.377C591.633 953.241 572.015 915.382 560.987 879.599C552.997 852.872 549.525 818.625 546.88 790.435C543.586 757.046 541.437 723.559 540.432 690.023C540.12 681.359 540.096 672.682 540.359 664.018C540.524 658.979 541.271 649.201 540.837 644.657C563.945 636.508 584.255 621.947 599.391 602.678Z" fill="#FD72C5"/>
<path d="M458.483 410C434.561 365.731 415.624 317.985 399 270.507C389.749 244.089 380.091 214.622 375.135 187.062C367.063 142.179 375.476 93.8619 402.384 56.3827C423.145 27.7593 454.38 8.50476 489.281 2.81645C505.096 0.228234 510.374 1.03892 525.272 1.37875C555.52 2.06759 580.924 9.64242 605.747 27.7336C634.96 49.4257 654.333 81.8595 659.575 117.865C670.1 187.382 630.815 248.929 598.099 306.88C579.277 340.213 557.804 376.491 535.142 407.29C511.764 401.042 480.914 400.217 458.483 410Z" fill="#E6BAF4"/>
<path d="M624.588 521.193C679.952 500.085 740.203 489.388 798.868 482.555C863.129 475.069 943.078 490.16 968.832 558.151C979.033 584.756 978.267 614.324 966.707 640.378C955.93 664.478 935.932 683.251 911.195 692.485C867.924 708.607 825.228 692.969 786.003 674.293C724.932 645.209 668.202 617.937 614.479 576.527C622.726 559.302 624.9 540.052 624.588 521.193Z" fill="#E6BAF4"/>
<path d="M458.484 410.001C480.914 400.218 511.765 401.043 535.142 407.291C547.254 410.889 553.928 414.198 565.023 420.011C587.127 435.075 601.4 449.052 613.327 473.838C615.507 478.357 618.851 486.52 619.94 491.334C621.998 500.174 624.863 512.167 624.588 521.192C624.9 540.051 622.726 559.302 614.479 576.526C610.303 586.574 605.563 593.683 599.391 602.678C584.255 621.947 563.945 636.508 540.837 644.657C530.985 647.707 520.863 649.782 510.607 650.854C510.221 650.903 509.842 650.958 509.456 651.007C471.267 652.281 444.589 641.731 416.426 617.894C407.997 609.695 403.05 603.266 396.546 593.701C383.883 572.975 380.239 558.586 377.192 535.024C377.024 520.776 376.893 513.943 380.03 499.875C387.137 467.281 402.714 446.898 427.668 426.345C438.384 418.778 446.516 414.85 458.484 410.001Z" fill="#FEFEFE"/>
</g>
<defs>
<clipPath id="clip0_122574_8929">
<rect width="976" height="1029" fill="white"/>
</clipPath>
</defs>
</svg>
